<?xml version="1.0" encoding="UTF-8" standalone="no"?>
<!DOCTYPE svg PUBLIC "-//W3C//DTD SVG 1.1//EN" "http://www.w3.org/Graphics/SVG/1.1/DTD/svg11.dtd">
<svg width="100%" height="100%" viewBox="0 0 200 200" version="1.1" xmlns="http://www.w3.org/2000/svg" xmlns:xlink="http://www.w3.org/1999/xlink" xml:space="preserve" xmlns:serif="http://www.serif.com/" style="fill-rule:evenodd;clip-rule:evenodd;stroke-linecap:round;stroke-linejoin:round;stroke-miterlimit:1.5;">
    <g id="d20">
        <path d="M99.867,8.358L19.306,54.466L19.836,146.87L99.661,192.998L179.71,147.03L180.183,54.391L99.867,8.358Z" style="fill:none;stroke:rgb(255,251,251);stroke-width:4.17px;"/>
        <path d="M99.867,8.358L99.606,51.822L180.183,54.391" style="fill:none;stroke:rgb(255,251,251);stroke-width:4.17px;"/>
        <path d="M99.606,51.822L147.924,133.137L180.183,54.391" style="fill:none;stroke:rgb(255,251,251);stroke-width:4.17px;"/>
        <path d="M147.924,133.137L179.71,147.03" style="fill:none;stroke:rgb(255,251,251);stroke-width:4.17px;"/>
        <path d="M147.924,133.137L52.05,133.327L99.606,51.822L19.306,54.466" style="fill:none;stroke:rgb(255,251,251);stroke-width:4.17px;"/>
        <path d="M19.836,146.87L52.05,133.327" style="fill:none;stroke:rgb(255,251,251);stroke-width:4.17px;"/>
        <path d="M52.05,133.327L99.661,192.998L147.924,133.137" style="fill:none;stroke:rgb(255,251,251);stroke-width:4.17px;"/>
        <path d="M19.306,54.466L52.05,133.327" style="fill:none;stroke:rgb(255,251,251);stroke-width:4.17px;"/>
    </g>
    <g transform="matrix(1,0,0,1,-7.7758,12.7531)">
        <g id="_12" serif:id="12">
            <text x="87.123px" y="107.429px" style="font-family:'Alegreya-Bold', 'Alegreya';font-weight:700;font-size:50px;fill:rgb(255,251,251);">12</text>
        </g>
    </g>
</svg>
