<?xml version="1.0" encoding="UTF-8" standalone="no"?>
<!DOCTYPE svg PUBLIC "-//W3C//DTD SVG 1.1//EN" "http://www.w3.org/Graphics/SVG/1.1/DTD/svg11.dtd">
<svg width="100%" height="100%" viewBox="0 0 596 284" version="1.1" xmlns="http://www.w3.org/2000/svg" xmlns:xlink="http://www.w3.org/1999/xlink" xml:space="preserve" style="fill-rule:evenodd;clip-rule:evenodd;stroke-linejoin:round;stroke-miterlimit:1.41421;">
    <g transform="matrix(0.24,0,0,0.24,0,0)">
        <g transform="matrix(8.85888,0,0,-9.30767,-17281.2,15807.2)">
            <g id="Splash">
                <path d="M2187.12,1713.4C2188.95,1712.94 2191.08,1714.06 2191.91,1712.75C2190.04,1712.97 2188.48,1712.11 2187.12,1713.4ZM2015.18,1707.75C2015.45,1707.02 2013.71,1707.21 2013.66,1707.53C2014.09,1708.05 2014.69,1707.17 2015.18,1707.75ZM2246.75,1706.22C2246.73,1706.24 2246.75,1706.41 2246.75,1706.44C2246.59,1708.16 2247.86,1705.11 2246.75,1706.22ZM1943.14,1703.39C1939.02,1701.42 1935.63,1698.71 1931.17,1697.08C1934.55,1699.65 1939.35,1701.96 1943.14,1703.39ZM1919.42,1695.56C1919.73,1695.18 1914.44,1694.89 1914.41,1694.9C1913.5,1695.38 1918.96,1696.1 1919.42,1695.56ZM2256.54,1602.41C2256.05,1601.96 2257.4,1601.97 2256.98,1601.54C2255.29,1599.79 2254.6,1605.51 2258.29,1603.06C2257.82,1602.01 2256.95,1602.78 2256.54,1602.41ZM2251.54,1601.32C2251.56,1601.14 2250.04,1600.4 2250.01,1600.88C2249.98,1601.55 2251.49,1601.68 2251.54,1601.32ZM2256.33,1599.79C2257.47,1601.96 2259.8,1599.67 2256.33,1599.79ZM2257.42,1598.71C2258.74,1600.46 2259.14,1596.98 2257.63,1598.49C2257.6,1598.52 2257.28,1598.52 2257.42,1598.71ZM1851.51,1599.79C1852.63,1599.75 1852.82,1598.78 1853.47,1598.27C1852.7,1598.66 1851.9,1599.02 1851.51,1599.79ZM2290.93,1598.92C2289.27,1597.07 2288.53,1599.71 2290.93,1598.92ZM2263.29,1597.84C2263.21,1597.52 2262.11,1597.24 2261.99,1597.62C2261.83,1598.12 2263.53,1598.77 2263.29,1597.84ZM2034.33,1596.31C2033.91,1594.92 2032.35,1596.48 2034.33,1596.31ZM2275.92,1595.44C2276.52,1594.83 2274.76,1593.86 2274.61,1594.57C2274.59,1594.63 2275.69,1595.67 2275.92,1595.44ZM2030.85,1595.01C2031.08,1594.78 2030.63,1594.14 2030.2,1594.57C2029.67,1595.1 2030.63,1595.22 2030.85,1595.01ZM1988.84,1594.14C1989.35,1593.63 1987.39,1592.89 1987.32,1593.48C1987.28,1593.85 1988.71,1594.27 1988.84,1594.14ZM1926.16,1592.39C1926.18,1591.72 1925.51,1591.75 1924.86,1591.74C1924.81,1592.9 1925.67,1591.79 1926.16,1592.39ZM1984.93,1592.39C1984.78,1591.86 1985.77,1591.72 1985.14,1591.31C1984.04,1590.58 1981.64,1591.48 1982.1,1593.05C1982.57,1594.66 1985.54,1592.89 1986.67,1593.92C1986.48,1592.82 1985.19,1593.34 1984.93,1592.39ZM1992.76,1590.65C1992.54,1590.43 1991.93,1590.8 1991.89,1590.87C1991.37,1591.77 1993.51,1591.4 1992.76,1590.65ZM1991.46,1590.65C1991.39,1589.88 1990.01,1590.28 1989.72,1590.44C1988.2,1591.24 1991.54,1591.71 1991.46,1590.65ZM2021.27,1592.39C2022.37,1592.8 2022.6,1594.01 2023.67,1594.57C2024.22,1594.86 2024.97,1594.57 2025.41,1594.79C2026.03,1595.1 2028.32,1596.92 2028.46,1596.97C2029.84,1597.48 2032.85,1597.34 2032.37,1595.88C2032.18,1595.28 2031.81,1596.23 2031.07,1596.09C2030.33,1595.96 2029.98,1595.14 2029.11,1594.79C2028.11,1594.39 2027.07,1594.57 2026.28,1594.14C2025.59,1593.76 2025.31,1592.92 2024.54,1592.39C2023.15,1591.44 2022.21,1591.65 2020.84,1591.52C2019.01,1591.35 2017.94,1589.77 2016.92,1590.22C2014.71,1591.2 2020.35,1592.05 2021.27,1592.39ZM1928.78,1591.31C1931.75,1592.44 1932.93,1590.04 1929.21,1590C1926.03,1589.97 1926.8,1590.56 1928.78,1591.31ZM2215.19,1589.78C2213.9,1588.59 2213.57,1590.71 2215.19,1589.78ZM2211.93,1589.78C2214.49,1590.89 2213.38,1588.95 2211.93,1589.13C2210.93,1589.25 2211.12,1589.43 2211.93,1589.78ZM2112.25,1590.87C2112.08,1591.06 2111.77,1589.06 2111.6,1588.91C2111.34,1588.69 2110.74,1589.13 2110.72,1589.13C2107.17,1589.31 2111.52,1591.69 2112.25,1590.87ZM1925.08,1589.35C1925.06,1589.24 1924.17,1588.59 1923.99,1589.13C1923.8,1589.68 1925.2,1590.1 1925.08,1589.35ZM1993.63,1590.22C1994.01,1589.5 1991.96,1588.19 1991.46,1588.7C1990.82,1589.34 1993.3,1590.84 1993.63,1590.22ZM2014.31,1590.22C2014.76,1589.97 2015.11,1588.71 2014.74,1588.48C2014.91,1588.58 2013.74,1589.13 2013.44,1589.13C2012.32,1589.14 2009.34,1587.13 2006.91,1588.26C2008.24,1588.83 2013.42,1590.71 2014.31,1590.22ZM1923.99,1588.26C1923.91,1587.83 1922.83,1587.72 1922.68,1588.04C1922.38,1588.71 1924.11,1588.97 1923.99,1588.26ZM2208.45,1587.61C2208.4,1586.95 2206.24,1586.15 2206.05,1586.52C2205.61,1587.37 2208.55,1589.26 2208.45,1587.61ZM2102.67,1587.17C2103,1586.84 2102.28,1585.73 2102.02,1586.52C2101.84,1587.04 2102.3,1587.54 2102.67,1587.17ZM2189.95,1586.74C2189.72,1585.94 2189.36,1585.29 2188.42,1585.21C2188.74,1585.91 2189.17,1586.5 2189.95,1586.74ZM2136.41,1585.21C2136.39,1585.14 2135.18,1584.88 2135.32,1585.21C2135.47,1585.58 2136.47,1585.46 2136.41,1585.21ZM2138.15,1583.91C2137.95,1583.71 2137.3,1584.02 2137.28,1584.13C2137.19,1584.55 2138.49,1584.25 2138.15,1583.91ZM2085.91,1585.65C2085.82,1587.19 2092.46,1587.6 2091.36,1585.43C2091.6,1585.91 2089.76,1585.34 2090.48,1584.78C2089.91,1586.07 2088.37,1586.25 2088.09,1585.43C2087.91,1584.9 2089.18,1584.71 2088.74,1584.13C2088.3,1583.54 2087.08,1584.11 2086.57,1583.47C2089.19,1586.17 2085.9,1585.84 2085.91,1585.65ZM2122.7,1581.08C2122.59,1580.65 2121.87,1580.88 2121.82,1581.08C2121.66,1581.74 2122.85,1581.68 2122.7,1581.08ZM1982.1,1593.48C1980.95,1592.39 1980.84,1594.27 1982.1,1593.48ZM2222.16,1596.09C2219.7,1595.57 2222.96,1596.87 2223.03,1598.05C2223.07,1598.82 2220.83,1598.26 2222.81,1600.01C2224.4,1601.42 2226.9,1600.25 2229.99,1600.45C2233.8,1600.69 2237.83,1600.83 2240.22,1601.32C2242.22,1601.73 2241.05,1601.76 2243.05,1600.88C2244.13,1600.41 2245.16,1600.9 2245.23,1600.88C2245.69,1600.73 2245.88,1600.03 2246.31,1599.79C2247.57,1599.12 2250.54,1598.62 2252.19,1598.05C2253.08,1597.75 2253.72,1597.86 2254.59,1597.62C2255.44,1597.38 2255.56,1596.32 2256.76,1597.18C2255.46,1596.17 2257.76,1595.14 2260.68,1595.44C2261.36,1595.51 2261.89,1596.16 2262.42,1596.09C2262.73,1596.06 2263.02,1595.2 2263.95,1595.01C2264.57,1594.87 2265.34,1595.28 2265.47,1595.22C2265.83,1595.07 2266.04,1594.14 2266.12,1594.14C2266.44,1594.11 2267.38,1594.97 2268.08,1595.01C2268.41,1595.02 2268.63,1593.97 2269.17,1595.44C2268.91,1594.75 2271.37,1598 2272.21,1596.75C2272.84,1595.83 2268.69,1596.15 2269.82,1594.57C2269.66,1594.79 2271.7,1595.42 2272,1594.35C2272.16,1593.76 2270.97,1593.61 2271.56,1593.05C2271.21,1593.38 2273.97,1592.17 2273.96,1592.18C2274.93,1592.04 2276.71,1592.85 2278.31,1592.83C2279.44,1592.82 2281.05,1592.06 2281.57,1592.18C2282.8,1592.46 2283.32,1594.64 2284.4,1594.79C2286.09,1595.02 2286.92,1594.16 2287.88,1595.88C2287.47,1596.33 2285.04,1594.77 2285.49,1595.88C2285.94,1596.96 2290.34,1597.92 2291.15,1596.09C2291.31,1597.93 2291.86,1597.05 2293.11,1596.97C2294.5,1596.87 2294.74,1598.82 2295.72,1597.84C2296.5,1597.05 2294.1,1596.52 2293.76,1596.09C2294.47,1595.69 2296.72,1596 2297.03,1597.18C2297.12,1597.53 2295.93,1598.34 2295.94,1598.49C2296.02,1600.27 2299.22,1599.29 2300.73,1599.14C2301.62,1599.64 2299.33,1600.95 2300.73,1601.54C2301.73,1601.96 2301.59,1599.22 2303.12,1599.58C2302.42,1599.12 2301.59,1598.79 2301.6,1597.62C2302.71,1598.43 2305.86,1601.24 2307.04,1599.36C2307.98,1597.86 2304.92,1596.09 2305.51,1594.14C2308.24,1595.17 2305.31,1591.78 2305.51,1591.31C2305.89,1590.44 2308.4,1590.87 2309.21,1589.78C2309.88,1588.91 2308.83,1588.14 2309.43,1586.95C2310.28,1587.02 2310.27,1589.4 2310.96,1589.78C2311.47,1590.07 2311.29,1588.95 2311.39,1588.91C2312.24,1588.63 2313.05,1591.22 2314.44,1591.31C2314.54,1591.31 2315.15,1590.26 2315.31,1590.22C2315.84,1590.07 2316.62,1591.09 2317.48,1591.31C2318.58,1591.58 2320.41,1590.74 2322.05,1591.74C2322.12,1591.78 2322.28,1592.53 2322.49,1592.61C2323.91,1593.15 2325.66,1592.74 2326.84,1593.05C2327.83,1593.3 2329.02,1593.3 2330.54,1593.7C2331.88,1594.05 2333.1,1595.33 2334.46,1595.66C2336.23,1596.09 2338.05,1595.75 2340.12,1596.09C2341.97,1596.4 2343.55,1597.91 2344.47,1598.05C2344.91,1598.12 2345.55,1597.69 2345.78,1597.84C2346.74,1598.46 2346.09,1600.42 2347.3,1598.71C2347.16,1602.89 2352.35,1602.14 2348.61,1599.58C2349.46,1599.5 2351.94,1600.08 2352.31,1600.88C2352.34,1600.96 2351.1,1603.17 2351.44,1603.49C2352.78,1604.83 2355.24,1601.84 2356.88,1602.63C2357.13,1602.74 2358.78,1605.09 2358.84,1605.24C2359.31,1606.48 2358.67,1608.24 2359.92,1608.94C2360.24,1609.11 2361.98,1608.25 2362.54,1609.15C2363.16,1610.19 2360.16,1610.19 2359.92,1610.68C2359.9,1610.72 2360.86,1611.78 2360.79,1611.55C2361.5,1613.88 2360.75,1619.3 2360.79,1621.99C2360.81,1623.08 2360.39,1625.15 2359.92,1626.13C2359.79,1626.42 2359,1626.61 2358.84,1627C2358.73,1627.24 2359.11,1627.85 2359.05,1628.09C2358.63,1629.79 2356.93,1631.09 2356.44,1632.66C2355.68,1635.13 2356.01,1636.95 2355.14,1638.75C2354.5,1640.07 2353.41,1640.85 2352.53,1642.23C2349.88,1646.35 2347.86,1650.38 2344.25,1653.99C2342.5,1655.74 2340.27,1656.55 2338.38,1658.34C2336.48,1660.13 2335.11,1662.57 2332.94,1664C2331.65,1664.84 2328.85,1665.37 2327.93,1667.26C2327.97,1667.18 2328.15,1668.03 2328.15,1667.92C2328.04,1671.75 2323.55,1673.49 2322.93,1675.54C2322.69,1676.31 2323.59,1677.42 2323.14,1678.36C2323.08,1678.51 2322.31,1678.85 2322.27,1679.02C2321.97,1680.31 2322.75,1681.85 2322.93,1683.59C2323.32,1687.44 2323.26,1691.91 2322.49,1696.43C2322.08,1698.83 2321.48,1702.38 2320.31,1704.04C2320.33,1704.03 2319.36,1704.42 2319.44,1704.26C2319.22,1704.67 2319.63,1705.28 2319.44,1705.79C2319.36,1706.02 2317.64,1707.97 2317.05,1708.4C2316.58,1708.73 2315.93,1708.49 2315.53,1709.27C2313.26,1713.56 2311.75,1714.76 2311.61,1719.93C2311.54,1722.17 2311.96,1724.12 2311.82,1726.03C2311.72,1727.44 2310.95,1728.94 2310.96,1730.16C2310.96,1731.74 2311.91,1732.99 2311.82,1734.51C2311.79,1735.13 2311.22,1735.76 2311.17,1736.47C2311.04,1738.36 2311.89,1739.88 2312.04,1741.7C2312.24,1744.08 2311.84,1746.57 2312.04,1748.88C2312.19,1750.5 2312.9,1751.93 2313.13,1753.45C2313.44,1755.44 2312.51,1757.62 2313.13,1759.11C2313.63,1760.29 2313.25,1763.46 2313.13,1764.77C2313.03,1765.94 2314.46,1767.26 2314.44,1768.69C2314.41,1770.28 2314.1,1771.47 2314.22,1773.04C2314.44,1775.91 2314.27,1777.84 2314.66,1781.96C2314.8,1783.51 2315.88,1785.22 2315.96,1787.18C2316.06,1789.76 2316.15,1792.34 2315.96,1795.24C2315.85,1796.97 2316.65,1797.82 2316.83,1798.94C2317.33,1801.92 2315.97,1804.78 2316.18,1808.08C2316.2,1808.49 2316.72,1809.2 2316.83,1810.04C2316.96,1811.08 2316.38,1812.26 2316.61,1812.87C2316.75,1813.21 2317.42,1813.32 2317.48,1813.74C2317.61,1814.64 2316.91,1814.9 2316.83,1815.7C2316.61,1817.88 2317.69,1821.52 2317.48,1824.18C2317.45,1824.57 2317,1825.14 2317.05,1825.49C2317.17,1826.44 2318.25,1827.21 2318.35,1828.1C2318.47,1829.03 2317.14,1830.56 2317.27,1831.8C2317.42,1833.35 2317.66,1833.03 2317.27,1834.63C2316.77,1836.65 2318.13,1838.54 2318.14,1840.51C2318.15,1842.67 2317.04,1844.52 2317.27,1846.6C2317.34,1847.33 2318.08,1848.17 2318.14,1848.99C2318.23,1850.23 2317.21,1851.47 2317.27,1852.69C2317.3,1853.46 2318.05,1854.04 2318.14,1854.87C2318.23,1855.81 2317.5,1856.94 2317.48,1857.92C2317.46,1859.92 2317.33,1862.42 2317.48,1864.01C2317.68,1866.07 2319.22,1867.68 2318.57,1869.89C2317.71,1872.83 2318.1,1876.59 2318.14,1881.21C2318.16,1883.82 2319.28,1886.39 2319.22,1888.6C2319.17,1890.99 2318.23,1893.47 2318.57,1895.79C2318.79,1897.28 2319.3,1897.56 2319.01,1899.49C2318.66,1901.72 2319.06,1904.18 2319.22,1906.45C2319.3,1907.5 2319.68,1908.86 2319.66,1909.72C2319.66,1909.63 2319,1910.33 2319.01,1910.37C2319.06,1910.83 2319.79,1911.29 2319.88,1911.67C2320.16,1912.86 2319.77,1915.34 2319.88,1917.12C2319.93,1917.98 2319.99,1919.62 2319.88,1920.16C2319.81,1920.48 2319.21,1921.1 2319.22,1921.47C2319.34,1924.77 2323.42,1926.96 2323.58,1930.39C2323.59,1930.65 2323.03,1931.07 2322.93,1931.48C2322.51,1933.14 2322.66,1934.78 2321.4,1936.27C2320.5,1937.34 2319.99,1939.49 2319.22,1940.62C2316.33,1944.89 2312.91,1947.65 2311.61,1954.12C2311.14,1956.42 2309.69,1958.28 2309.21,1960.64C2309.06,1961.4 2309.37,1962.72 2309.21,1963.26C2309.02,1963.92 2308.15,1964.34 2307.91,1965C2307.44,1966.24 2307.78,1968.46 2307.25,1969.78C2306.39,1971.98 2305.89,1975.79 2305.73,1979.36C2305.65,1981.27 2304.9,1983.4 2304.86,1984.59C2304.84,1985.12 2305.43,1985.34 2305.51,1985.89C2305.68,1986.92 2305.21,1989.85 2304.64,1991.11C2304.19,1992.13 2302.86,1993.08 2302.9,1995.03C2302.92,1995.89 2303.55,1996.71 2303.56,1997.43C2303.56,1997.99 2302.97,1998.43 2302.9,1998.95C2302.5,2001.88 2305.81,2010.74 2300.73,2012.01C2300.21,2012.14 2298.21,2012.18 2297.68,2012.01C2294.86,2011.1 2294.59,2005.23 2294.63,2002.21C2294.66,2000.17 2295.79,1998.46 2295.72,1996.55C2295.64,1994.45 2295.85,1993.74 2296.59,1991.98C2297.15,1990.66 2296.49,1989.65 2296.59,1987.63C2296.7,1985.46 2297.75,1983.35 2297.68,1981.32C2297.64,1980.08 2296.96,1979.34 2297.03,1978.49C2297.09,1977.63 2297.9,1976.99 2298.11,1975.88C2298.74,1972.64 2298.75,1968.66 2299.85,1965.22C2300.07,1964.55 2300.72,1964.06 2300.94,1963.47C2301.48,1962.07 2300.83,1960.62 2301.16,1959.12C2301.38,1958.13 2301.76,1957.06 2302.03,1956.07C2303.11,1952.15 2305.02,1948.51 2306.17,1944.76C2306.59,1943.38 2306.66,1941.95 2307.25,1940.4C2307.67,1939.33 2308.57,1938.23 2308.78,1937.14C2308.88,1936.63 2308.47,1935.89 2308.56,1935.18C2308.69,1934.15 2309.61,1933.2 2309.65,1932.35C2309.7,1931.32 2308.94,1930.47 2309.21,1929.3C2309.47,1928.2 2312.36,1924.92 2312.7,1923.43C2312.88,1922.61 2312.76,1920.61 2312.7,1919.29C2312.53,1915.86 2313,1911.55 2312.48,1908.19C2312.11,1905.82 2312.61,1902.55 2312.48,1900.58C2312.46,1900.35 2311.89,1900.18 2311.82,1899.92C2311.63,1899.14 2312.58,1895.99 2312.26,1893.61C2312.19,1893.08 2312.32,1891.93 2312.26,1891.65C2312.17,1891.24 2311.42,1890.91 2311.39,1890.56C2311.29,1889.13 2311.51,1887.65 2311.39,1885.99C2311.27,1884.27 2311.81,1882.19 2311.61,1880.99C2311.48,1880.24 2310.73,1879.86 2310.74,1879.25C2310.75,1878.56 2311.5,1878.21 2311.61,1877.5C2311.66,1877.13 2311.03,1876.92 2310.96,1876.42C2310.75,1875.02 2311.07,1872.36 2310.96,1870.32C2310.75,1866.74 2310.15,1864.07 2310.08,1860.75C2310.05,1858.63 2309.76,1856.33 2309.43,1854.65C2309.28,1853.91 2309.78,1852.79 2309.65,1852.26C2309.51,1851.71 2308.83,1851.26 2308.78,1850.74C2308.69,1849.91 2309.21,1848.89 2309.21,1848.13C2309.21,1845.06 2309.08,1842.29 2308.56,1838.77C2308.1,1835.64 2308.86,1832.4 2308.78,1829.63C2308.73,1827.96 2307.93,1825.89 2307.91,1823.75C2307.88,1821.23 2308.58,1819.23 2308.13,1817.22C2307.76,1815.6 2308.59,1813.12 2308.34,1812.21C2308.19,1811.65 2307.55,1811.59 2307.47,1811.13C2306.71,1806.81 2306.39,1800.91 2307.04,1796.11C2307.19,1794.96 2306.42,1793.17 2306.38,1791.75C2306.33,1790.09 2306.86,1788.16 2306.82,1786.53C2306.8,1785.67 2306.23,1784.74 2306.17,1783.92C2306.15,1783.64 2306.65,1783.27 2306.6,1783.05C2306.03,1780.36 2305.97,1775.94 2305.95,1772.6C2305.93,1768.87 2305.9,1765.2 2305.95,1761.72C2305.96,1760.97 2305.49,1760.16 2305.51,1759.33C2305.54,1758.53 2306.19,1757.63 2306.17,1756.93C2306.15,1756.54 2305.49,1756.2 2305.3,1755.63C2304.38,1752.83 2306.52,1749.43 2304.21,1748.22C2305.02,1748 2304.91,1748.68 2305.3,1748.88C2304.41,1747.48 2305.07,1745.18 2304.43,1743.22C2304.26,1742.73 2303.64,1742.25 2303.56,1741.7C2303.15,1738.97 2303.97,1736.35 2302.9,1733.64C2302.39,1732.36 2302.27,1732.7 2302.25,1731.25C2302.22,1729.72 2300.89,1726.36 2300.29,1724.29C2299.63,1721.98 2300.53,1722.06 2298.55,1721.02C2295.59,1719.48 2300.41,1717.81 2298.98,1716.02C2298.13,1714.94 2291.11,1716.36 2294.63,1717.54C2290.41,1718.95 2291.2,1727.99 2289.84,1732.56C2289.75,1732.87 2289.2,1733.46 2289.19,1733.64C2289.17,1734.11 2289.75,1734.76 2289.63,1735.39C2289.52,1735.94 2288.06,1738.72 2288.32,1738.65C2287.36,1738.92 2287.65,1736.75 2287.67,1736.26C2287.84,1731.15 2288.08,1726.34 2289.19,1720.8C2289.17,1720.89 2290.38,1715.98 2288.32,1717.76C2288.14,1717.91 2287.6,1719.67 2287.45,1720.37C2286.82,1723.38 2286.58,1727.27 2285.93,1730.81C2285.73,1731.85 2285.12,1732.69 2285.05,1733.64C2284.93,1735.47 2285.73,1743.06 2284.18,1743.22C2283.83,1743.26 2281.44,1740.32 2281.36,1739.74C2281.22,1738.85 2282.07,1738.12 2281.14,1738C2280.78,1737.95 2280.77,1740.2 2280.05,1740.39C2277.34,1741.11 2279.08,1736.51 2277.22,1736.47C2275.23,1736.43 2276.95,1740.8 2275.7,1740.83C2273.63,1740.87 2275.42,1734.71 2275.04,1734.08C2274.49,1733.16 2273.01,1733.65 2272.87,1733.43C2272.36,1732.61 2273.28,1729.97 2272.87,1729.73C2269.7,1732.29 2270.82,1721.53 2270.91,1718.63C2271.01,1715.4 2271.14,1718.1 2270.26,1719.93C2270.13,1720.19 2269.47,1720.53 2269.38,1720.8C2268.88,1722.42 2269.59,1724.09 2269.38,1725.16C2269.3,1725.6 2268.83,1725.23 2268.51,1725.81C2267.95,1726.85 2268.34,1729.61 2267.86,1730.81C2267.63,1731.39 2266.19,1733.23 2265.69,1732.99C2265.67,1732.98 2265.4,1730.12 2265.03,1730.16C2264.36,1730.24 2265.01,1733.16 2263.29,1732.56C2263.03,1732.46 2261.75,1724.03 2261.11,1729.95C2259.98,1729.62 2260.96,1728.26 2260.03,1728.2C2259.26,1728.16 2259.19,1729.79 2258.94,1729.95C2257.67,1730.74 2255.58,1729.97 2254.15,1730.38C2253.38,1730.6 2252.56,1731.75 2251.54,1730.81C2249.64,1729.07 2251.37,1720.8 2248.27,1726.03C2248.19,1723.03 2247.69,1722.2 2247.84,1720.37C2248.01,1718.29 2247.67,1714.87 2247.84,1712.97C2247.86,1712.68 2248.54,1711.95 2248.49,1711.66C2248.34,1710.68 2247.28,1710.2 2247.18,1709.92C2246.99,1709.33 2247.34,1707.12 2246.97,1707.09C2246.58,1707.06 2245.78,1710.38 2245.66,1711.01C2245.44,1712.21 2245.33,1715.08 2245.01,1716.45C2244.97,1716.62 2244.1,1718.31 2244.57,1718.19C2242.96,1718.59 2243.42,1713.25 2243.49,1712.32C2243.58,1711.04 2244.46,1708.79 2244.57,1707.53C2244.63,1706.94 2244.23,1705.47 2244.14,1706.22C2244.26,1705.19 2244.43,1705.91 2243.27,1706C2242.67,1706.05 2241.47,1705.59 2240.44,1705.79C2239.49,1705.97 2239.36,1706.83 2238.26,1707.31C2234.35,1709.03 2226.23,1707.18 2225.42,1708.62C2224.92,1709.5 2226.33,1710.99 2226.29,1711.23C2226.14,1712.1 2224.94,1711.63 2224.77,1711.88C2224.25,1712.62 2225.3,1712.25 2225.42,1712.75C2225.76,1714.09 2224.63,1717.43 2224.99,1719.72C2225.71,1724.39 2225.92,1729.09 2226.29,1734.3C2226.52,1737.48 2226.67,1739.94 2226.51,1743.22C2226.32,1747.16 2228.08,1751.86 2227.82,1756.06C2227.69,1758.15 2228.49,1758.87 2228.69,1760.63C2228.8,1761.7 2228.09,1762.71 2228.25,1763.68C2228.36,1764.35 2229.19,1764.76 2229.34,1765.42C2229.58,1766.51 2229.4,1768.42 2229.56,1769.99C2229.75,1771.84 2229.97,1774.5 2229.77,1775.87C2229.56,1777.37 2229.45,1777.41 2229.77,1779.13C2230.15,1781.1 2230.24,1783.84 2230.43,1785.88C2230.86,1790.42 2230.57,1795.19 2230.86,1799.37C2231.09,1802.65 2231.64,1807.1 2232.39,1810.25C2232.94,1812.6 2233.06,1815.39 2233.69,1817.87C2234.01,1819.12 2235.09,1819.77 2235.21,1821.57C2235.35,1823.6 2234.49,1826.43 2234.35,1828.75C2234.11,1832.54 2234.82,1834.78 2232.6,1837.24C2230.71,1839.34 2225.28,1839.2 2224.33,1836.15C2223.2,1832.52 2225.51,1829.9 2225.86,1826.79C2226.14,1824.25 2225.89,1821.39 2225.42,1819.83C2224.51,1816.77 2222.92,1815.53 2223.68,1811.34C2224.07,1809.21 2222.99,1807.35 2223.03,1805.9C2223.04,1805.25 2223.61,1804.64 2223.68,1803.94C2224.08,1799.87 2222.89,1794.12 2222.59,1788.71C2222.39,1785.18 2221.51,1780.7 2221.5,1777.17C2221.5,1775.23 2222.09,1773.52 2221.94,1772.17C2221.81,1771.01 2220.58,1766.71 2220.85,1765.42C2220.93,1765.07 2221.49,1764.85 2221.5,1764.55C2221.59,1762.23 2220.88,1759.85 2221.5,1756.93C2222.47,1752.44 2222.29,1744.37 2221.5,1739.74C2221.37,1738.96 2220.82,1738.58 2220.85,1738C2220.88,1737.6 2221.71,1736.14 2221.72,1736.04C2221.98,1733.78 2220.92,1729.7 2220.63,1727.33C2220.47,1725.95 2220.92,1724.85 2220.85,1723.85C2220.82,1723.38 2220.31,1723.34 2220.2,1722.76C2219.98,1721.62 2220.83,1719.75 2220.63,1718.19C2220.37,1716.1 2219.34,1714.16 2219.11,1712.53C2218.98,1711.62 2219.22,1708.13 2218.67,1707.75C2217.7,1707.06 2209.54,1708.14 2208.45,1708.62C2208.48,1708.6 2209.04,1709.02 2208.88,1709.27C2208.46,1709.94 2205.22,1709.61 2203.44,1709.92C2203.08,1709.98 2195.32,1711.9 2195.39,1711.88C2192.5,1712.63 2193.3,1713.14 2196.04,1712.97C2198.58,1712.81 2201.02,1711.76 2203.87,1711.66C2196.86,1714.7 2186.11,1714.67 2176.89,1714.27C2179.35,1715.29 2181.72,1715.08 2184.72,1715.58C2184.94,1717.77 2175.62,1715.75 2175.36,1717.1C2175.18,1718.08 2178.83,1717.57 2179.5,1718.19C2176.46,1719.34 2173.55,1716.97 2170.58,1717.32C2169.85,1717.41 2169.52,1718.24 2168.84,1718.41C2167.36,1718.79 2166.41,1717.85 2165.57,1718.63C2166.06,1718.18 2165.19,1719.55 2165.35,1719.5C2162.59,1720.38 2157.38,1718.95 2153.82,1718.41C2149.35,1717.73 2145.55,1717.01 2141.41,1715.58C2139.6,1714.95 2139.96,1714.65 2138.15,1715.14C2136.35,1715.64 2134.17,1714.76 2132.71,1714.93C2132.45,1714.96 2132.54,1715.48 2132.27,1715.58C2131.36,1715.92 2129.89,1715.23 2128.79,1715.14C2125.82,1714.92 2121.72,1715.34 2119.21,1714.06C2121.24,1714.72 2127.9,1714.85 2123.56,1713.19C2121.69,1712.46 2117.8,1711.65 2115.73,1710.79C2115.97,1710.89 2114.97,1709.5 2113.77,1709.7C2114.15,1709.64 2113.17,1711.07 2113.55,1710.79C2111.7,1712.11 2104.15,1709.86 2101.58,1709.92C2097.72,1710.01 2101.77,1711.43 2102.24,1711.66C2098.62,1711.03 2100.51,1713.56 2100.93,1715.14C2101.74,1718.22 2100.12,1721.46 2102.67,1721.67C2101.08,1722.55 2101.8,1725.8 2102.24,1727.55C2103.53,1732.73 2101.68,1740.46 2103.54,1744.53C2104.68,1747 2103.44,1749.88 2103.76,1752.36C2103.81,1752.72 2104.38,1753.06 2104.41,1753.45C2104.69,1756.98 2104.18,1759.08 2104.85,1762.16C2105.31,1764.3 2106.47,1768.79 2105.94,1771.95C2105.86,1772.4 2105.32,1772.97 2105.28,1773.47C2105.2,1774.52 2105.9,1775.83 2105.72,1776.96C2105.61,1777.63 2105.08,1778.1 2105.07,1778.7C2105.04,1779.67 2105.57,1780.61 2105.5,1781.53C2105.34,1783.84 2104.39,1785.06 2104.63,1787.4C2104.75,1788.52 2105.08,1789.96 2105.07,1791.54C2105.02,1795.01 2103.72,1798.43 2103.76,1801.77C2103.77,1802.39 2104.34,1802.86 2104.41,1803.51C2104.51,1804.32 2103.93,1805.06 2103.98,1805.9C2104.11,1808.09 2105.46,1809.58 2105.28,1811.78C2105.06,1814.64 2104.13,1817.9 2104.63,1820.48C2105.05,1822.63 2104.96,1823.97 2104.85,1826.58C2104.77,1828.43 2105.98,1830.54 2105.94,1832.02C2105.91,1832.89 2105.09,1833.52 2105.07,1834.2C2105.04,1835.05 2105.84,1836.23 2105.94,1837.24C2106.08,1838.67 2105.95,1839.99 2106.15,1841.16C2106.72,1844.38 2105.26,1847.62 2105.28,1850.95C2105.3,1853.08 2105.69,1856.06 2105.94,1858.35C2106.2,1860.82 2107.06,1862.43 2106.59,1864.66C2106.37,1865.71 2106.83,1867 2106.81,1868.36C2106.77,1870.71 2106.1,1873.29 2106.37,1875.11C2106.46,1875.67 2106.96,1876.28 2107.02,1876.85C2107.21,1878.51 2106.45,1879.95 2106.37,1881.42C2106.18,1884.95 2106.59,1890.21 2106.59,1894.05C2106.59,1895.82 2107.21,1896.16 2107.46,1897.75C2107.71,1899.27 2106.93,1900.28 2107.24,1901.45C2107.54,1902.57 2108,1902.77 2108.11,1904.28C2108.34,1907.36 2109.54,1910.55 2109.85,1913.42C2110.28,1917.29 2107.04,1922.03 2102.67,1921.25C2099.5,1920.68 2097.96,1917.15 2097.88,1914.29C2097.82,1912.09 2099.1,1909.92 2099.19,1907.54C2099.21,1906.96 2098.78,1906.36 2098.75,1905.8C2098.67,1903.99 2100.39,1902.25 2100.5,1900.14C2100.64,1897.24 2099.75,1893.19 2099.41,1890.35C2099.17,1888.41 2099.8,1887.01 2099.84,1885.12C2099.87,1883.97 2099.06,1882.8 2099.19,1881.64C2099.25,1881.14 2099.84,1880.61 2099.84,1880.12C2099.85,1878.5 2098.69,1876.9 2098.54,1875.11C2098.22,1871.47 2099.05,1867.99 2099.41,1863.79C2099.51,1862.59 2099.18,1861.48 2099.41,1860.53C2099.52,1860.03 2100.22,1859.33 2100.28,1858.79C2100.3,1858.59 2099.66,1858.09 2099.62,1857.92C2099.46,1857.09 2100.22,1856.14 2100.28,1855.3C2100.35,1854.25 2099.76,1853.1 2099.84,1852.04C2099.88,1851.52 2100.34,1851.57 2100.5,1850.95C2101.12,1848.42 2099.1,1845.15 2099.19,1842.03C2099.21,1841.06 2099.95,1840.33 2100.06,1839.42C2100.44,1836.18 2099.02,1831.81 2098.97,1828.1C2098.92,1823.9 2099.43,1819.6 2098.75,1815.91C2098.58,1814.97 2098.77,1813.55 2098.54,1812.43C2098.05,1810.11 2097.97,1806.08 2097.88,1803.51C2097.88,1803.32 2098.39,1802.69 2098.32,1802.42C2098.21,1801.98 2097.33,1801.63 2097.23,1801.33C2096.21,1798.25 2098.3,1793.54 2097.23,1790.45C2097.02,1789.84 2096.36,1789.39 2096.14,1788.71C2095.59,1786.97 2096.74,1784.31 2096.58,1782.18C2096.3,1778.57 2096.21,1774.83 2096.58,1772.17C2096.7,1771.29 2097.21,1770.6 2097.23,1769.77C2097.27,1768.1 2096.52,1766.43 2096.58,1764.77C2096.66,1762.54 2097.24,1760.35 2097.23,1758.24C2097.23,1756.97 2096.62,1755.81 2096.58,1754.54C2096.45,1750.96 2096.78,1747.12 2096.14,1744.31C2095.89,1743.21 2095.91,1741.58 2095.71,1740.17C2095,1735.32 2095.22,1731.7 2094.62,1726.25C2094.35,1723.82 2093.15,1721.67 2092.44,1719.5C2091.22,1715.76 2090.5,1711.88 2089.18,1708.83C2088.93,1708.26 2087.88,1707.77 2087.44,1707.09C2087.3,1706.88 2087.62,1706.16 2087.44,1706C2087.31,1705.89 2085.02,1704.91 2085.04,1704.92C2083.49,1704.75 2082.21,1705.97 2080.25,1706.44C2078.47,1706.86 2076.03,1706.57 2075.03,1707.09C2074.85,1707.19 2074.96,1707.98 2075.03,1707.96C2071.28,1708.75 2063,1705.53 2059.36,1704.92C2056.94,1704.51 2054.3,1703.41 2052.4,1702.52C2050.79,1701.77 2049.51,1700.17 2048.48,1699.91C2048.28,1699.86 2046.03,1699.53 2045.65,1700.13C2044.65,1701.69 2048.47,1700.79 2048.7,1701C2048.71,1701.01 2048.1,1702.87 2048.48,1702.52C2047.42,1703.49 2042.64,1703.22 2041.95,1704.04C2041.75,1704.29 2042.23,1704.58 2042.38,1704.48C2041.21,1705.19 2040.25,1704.84 2039.12,1705.13C2038.65,1705.25 2038.58,1705.79 2038.03,1706C2036,1706.78 2033.26,1705.4 2031.5,1706C2030.86,1706.22 2031.11,1706.95 2030.63,1707.09C2029.42,1707.46 2025.53,1706.36 2024.76,1707.31C2024.48,1707.64 2025.41,1710.1 2025.41,1710.14C2025.43,1710.49 2024.99,1711.09 2024.97,1711.44C2024.92,1712.96 2026.19,1715.04 2026.28,1717.32C2026.38,1719.99 2025.76,1722.72 2026.28,1725.59C2026.71,1727.93 2028.36,1730.01 2028.89,1732.12C2030.03,1736.62 2030.2,1743.45 2029.98,1748.88C2029.93,1750.04 2028.96,1751.24 2028.89,1752.58C2028.81,1754.03 2029.56,1755.29 2029.54,1756.71C2029.5,1760.25 2028.34,1764.95 2028.67,1767.38C2028.73,1767.84 2029.31,1768.46 2029.33,1768.9C2029.36,1770.11 2028.71,1771.34 2028.89,1772.82C2029.63,1779.01 2028.37,1785.22 2029.33,1791.75C2029.47,1792.71 2028.99,1793.62 2028.89,1794.8C2028.65,1797.52 2029.64,1800.7 2029.54,1802.42C2029.42,1804.64 2028.32,1805.97 2028.67,1808.29C2029.1,1811.12 2029.11,1814.61 2029.11,1818.09C2029.1,1823.7 2030.26,1829.66 2029.54,1834.85C2029.3,1836.58 2029.21,1837.28 2029.33,1838.98C2029.73,1844.81 2029.38,1850.37 2029.54,1855.74C2029.63,1858.58 2030.5,1860.79 2030.2,1863.14C2030.08,1864.06 2029.16,1864.99 2029.11,1865.97C2029.08,1866.48 2029.65,1867.17 2029.54,1867.71C2029.42,1868.36 2028.54,1868.84 2028.46,1869.45C2028.39,1869.91 2029.06,1870.14 2029.11,1870.54C2029.22,1871.39 2028.72,1873.26 2028.67,1874.68C2028.63,1875.97 2028.7,1877.9 2028.46,1878.81C2028.08,1880.21 2027.41,1880.1 2027.37,1882.08C2027.3,1885.16 2025.21,1888.03 2025.19,1891C2025.18,1892.67 2025.41,1894.29 2025.19,1895.79C2025.02,1897.01 2024.26,1898.04 2024.1,1899.27C2023.99,1900.15 2024.42,1901.03 2024.32,1901.88C2024.19,1902.93 2023.35,1903.91 2023.23,1904.93C2023.05,1906.42 2023.71,1908.14 2023.45,1909.72C2023.35,1910.33 2022.62,1911.09 2022.58,1911.67C2022.51,1912.68 2023.33,1913.71 2023.23,1914.94C2023.13,1916.24 2022.72,1918.94 2023.01,1920.82C2023.11,1921.44 2023.7,1921.98 2023.67,1922.56C2023.65,1922.88 2022.91,1923.37 2022.8,1924.3C2022.4,1927.44 2024.24,1931.37 2022.14,1932.79C2020.38,1933.98 2016.63,1933 2016.05,1931.48C2015.86,1930.99 2016,1923.35 2016.27,1922.34C2016.73,1920.63 2016.36,1918.61 2016.49,1916.46C2016.67,1913.36 2018.07,1909.79 2017.79,1906.67C2017.5,1903.43 2019.15,1899.79 2018.88,1897.96C2018.81,1897.46 2018.04,1896.91 2018.01,1896.44C2017.96,1895.82 2018.38,1895.08 2018.45,1894.48C2018.85,1890.41 2018.91,1885.61 2019.1,1881.64C2019.15,1880.53 2018.28,1879.3 2018.23,1878.16C2018.11,1875.63 2019.08,1872.56 2019.32,1870.11C2019.58,1867.36 2020.34,1864.51 2020.84,1861.84C2021.23,1859.74 2021.31,1857.54 2021.71,1855.3C2022.63,1850.14 2021.26,1845.75 2021.93,1841.38C2021.94,1841.26 2021.95,1840.02 2021.93,1839.85C2021.58,1837.22 2021.73,1834.12 2021.49,1832.02C2020.82,1826.16 2022,1820.83 2022.14,1815.04C2022.2,1812.95 2021.52,1810.63 2021.49,1808.95C2021.49,1808.59 2021.97,1807.89 2021.93,1807.42C2021.82,1806.19 2020.93,1804.82 2020.84,1803.51C2020.47,1798.38 2019.91,1790.58 2019.75,1785.01C2019.72,1784.04 2019.66,1782.94 2019.75,1782.4C2019.77,1782.28 2020.39,1781.53 2020.4,1781.31C2020.43,1780.57 2019.85,1780.08 2019.97,1779.35C2020.15,1778.16 2020.33,1778.15 2020.19,1776.74C2019.95,1774.47 2021.71,1772.08 2021.49,1769.77C2021.39,1768.66 2021.34,1767.32 2021.27,1766.07C2021.17,1764.2 2022.1,1762.6 2022.14,1761.07C2022.16,1760.53 2021.58,1759.85 2021.49,1759.33C2020.92,1756.03 2021.69,1751.27 2021.49,1747.79C2021.34,1745.08 2022.34,1743.14 2021.71,1740.83C2021.42,1739.77 2020.4,1738.99 2020.19,1737.78C2019.33,1732.94 2020.84,1727.36 2020.62,1722.54C2020.6,1722.1 2020.04,1721.2 2019.97,1720.58C2019.73,1718.65 2020.29,1714.85 2019.97,1712.32C2020,1712.55 2018.99,1707.87 2019.1,1707.96C2018.81,1707.72 2017.44,1708.6 2017.36,1708.62C2005.73,1710.51 1994.21,1711.01 1981.01,1712.53C1988.05,1713.26 1993.87,1711.91 1999.73,1711.88C1989.85,1714.32 1974.17,1714.12 1963.38,1713.62C1963.57,1713.47 1965.66,1712.24 1966.43,1712.53C1966.51,1712.56 1966.44,1713.41 1966.65,1713.4C1967.12,1713.39 1967.43,1712.86 1967.95,1712.75C1971.66,1711.98 1976.92,1714.04 1980.58,1712.75C1971.86,1711.61 1965.78,1712.79 1958.16,1711.66C1956.39,1711.4 1954.08,1711.73 1952.28,1711.01C1951.79,1710.81 1951.22,1709.83 1950.54,1709.49C1947.46,1707.94 1943.71,1708.09 1941.4,1705.79C1940.34,1704.73 1940.97,1704.7 1939.01,1704.04C1935.72,1702.96 1932.13,1698.92 1929.43,1697.95C1927.68,1697.33 1925.68,1697.47 1923.99,1696.86C1922,1696.15 1923.53,1696.93 1922.25,1697.73C1921.22,1698.37 1915.25,1695.99 1914.41,1697.3C1913.83,1698.2 1916.09,1698.59 1917.24,1698.39C1915.47,1699.95 1912.45,1697.92 1910.71,1699.26C1909.38,1700.29 1910.82,1702.49 1909.84,1703.39C1908.7,1704.45 1905.56,1702.77 1903.96,1702.96C1902.29,1703.16 1899.38,1703.67 1898.31,1704.04C1897.67,1704.27 1897.14,1705.2 1896.57,1705.35C1893.74,1706.12 1887.01,1704.08 1885.47,1707.53C1885.03,1708.51 1883.6,1711.17 1883.72,1712.53C1883.72,1712.5 1884.28,1713.4 1884.38,1713.19C1884.05,1713.92 1883.08,1713.58 1882.42,1714.27C1880.8,1715.97 1881.45,1720.45 1879.59,1722.54C1879.01,1723.2 1877.85,1723.53 1877.63,1724.94C1877.46,1726.03 1878.07,1726.77 1877.85,1727.55C1877.38,1729.21 1875.19,1731.75 1874.58,1733.21C1874.37,1733.73 1874.59,1734.27 1874.37,1734.95C1873.71,1736.96 1872.3,1738.88 1871.97,1741.04C1871.83,1742.01 1872.37,1743.18 1872.19,1744.31C1872.02,1745.33 1871.16,1746.42 1871.1,1747.57C1870.99,1749.63 1869.71,1751.14 1869.36,1753.23C1869.03,1755.18 1869.5,1757.23 1869.14,1759.11C1869.01,1759.81 1868.43,1760.48 1868.27,1761.29C1868.06,1762.36 1868.47,1763.83 1868.27,1765.2C1867.94,1767.46 1866.5,1769.55 1866.53,1771.51C1866.54,1772.24 1867.02,1772.81 1866.97,1773.47C1866.84,1774.96 1865.76,1776.33 1865.66,1777.83C1865.48,1780.47 1865.67,1784.79 1865.66,1787.4C1865.66,1788.85 1866.63,1790.32 1866.53,1791.32C1866.44,1792.33 1865.41,1792.69 1865.22,1793.71C1865.13,1794.25 1865.96,1796.44 1865.66,1797.2C1865.48,1797.65 1864.74,1797.55 1864.79,1798.07C1864.83,1798.58 1865.7,1798.9 1865.88,1799.59C1866.18,1800.76 1864.94,1801.87 1864.79,1802.85C1864.73,1803.22 1865.41,1804.79 1865.22,1805.9C1865,1807.27 1864.56,1808.67 1864.35,1810.25C1863.18,1819.49 1862.74,1830.75 1861.53,1840.51C1861.18,1843.29 1859.53,1847.77 1858.26,1848.56C1856.52,1849.65 1853.06,1849.43 1852.38,1848.78C1851.68,1848.09 1852.53,1846.06 1852.17,1845.51C1852,1845.26 1850.81,1845.24 1850.64,1844.86C1850.38,1844.26 1851.1,1844.18 1851.08,1843.55C1851.01,1841.94 1848.51,1840.46 1851.51,1840.07C1851.11,1839.29 1849.82,1839.84 1849.55,1839.2C1849.07,1838.03 1849.97,1839.48 1850.64,1838.33C1851.11,1837.53 1850.46,1836.67 1850.86,1835.07C1851.42,1832.83 1853.92,1827.03 1854.13,1824.62C1854.18,1823.92 1853.63,1823.7 1853.91,1823.31C1854.73,1822.16 1857.89,1823.01 1856.3,1820.7C1855.91,1820.13 1854.08,1820.12 1854.56,1817.65C1854.43,1818.32 1856.65,1816.17 1855.65,1815.7C1854.55,1815.17 1854.76,1811.25 1855.65,1808.95C1856.33,1807.17 1856.55,1808.38 1855.65,1807.21C1855.01,1806.37 1855.07,1802.35 1855.65,1801.11C1855.69,1801.02 1856.3,1800.92 1856.3,1800.9C1856.67,1799.37 1855.85,1797.79 1856.08,1796.32C1856.17,1795.76 1856.77,1795.37 1856.95,1794.8C1857.51,1793.13 1856.97,1791.05 1857.39,1789.58C1857.52,1789.11 1858.29,1789.13 1858.48,1788.71C1858.94,1787.68 1858.33,1784.8 1858.48,1782.83C1858.74,1779.23 1859.46,1774.64 1860.44,1771.29C1860.77,1770.17 1860.62,1769.02 1861.09,1767.16C1861.53,1765.42 1862.69,1764.11 1862.61,1762.59C1862.53,1760.87 1862.58,1757.53 1863.48,1755.19C1864.15,1753.47 1864.57,1752.15 1865.01,1749.97C1866.21,1744.03 1867.78,1739.33 1868.92,1732.77C1869.17,1731.34 1870.31,1731 1870.88,1729.51C1871.79,1727.17 1870.56,1724.58 1871.1,1722.33C1871.46,1720.85 1873.51,1719.54 1873.06,1716.89C1872.95,1716.25 1872.54,1716.71 1872.19,1716.02C1870.83,1713.33 1873.94,1710.13 1873.71,1707.53C1873.57,1705.89 1872.24,1704.74 1871.1,1703.83C1869.79,1702.79 1868.24,1700.42 1866.97,1700.13C1866.11,1699.94 1865.18,1700.67 1864.79,1700.56C1863.52,1700.21 1863.93,1698.78 1862.61,1698.6C1861.18,1698.41 1860.57,1700.07 1858.91,1698.6C1858.1,1697.89 1857.92,1696.19 1856.95,1695.56C1856.13,1695.02 1854.63,1695.44 1853.91,1694.9C1853.45,1694.56 1853.64,1694.04 1853.04,1692.73C1851.94,1690.34 1849.54,1687.74 1847.16,1684.89C1845.72,1683.17 1844.46,1679.74 1844.11,1679.02C1843.76,1678.28 1842.96,1677.7 1842.81,1677.28C1842.53,1676.51 1842.82,1675.61 1842.59,1675.1C1842.44,1674.75 1841.8,1674.63 1841.72,1674.45C1841.51,1673.95 1841.6,1672.16 1841.07,1671.83C1840.34,1671.38 1841.16,1668.7 1840.85,1666.83C1840.56,1665.07 1839.26,1663.34 1839.11,1661.82C1839.11,1661.85 1839.76,1661.8 1839.76,1661.82C1839.73,1661.59 1839.31,1661.11 1839.33,1660.73C1839.39,1659.5 1840.65,1658.52 1840.2,1657.25C1839.95,1656.58 1838.55,1656.2 1837.8,1655.29C1837.65,1655.11 1837.76,1654.44 1837.58,1654.21C1837.28,1653.81 1836.74,1653.82 1836.71,1653.77C1836.6,1653.55 1837.14,1653.06 1836.93,1652.9C1836.76,1652.76 1835.92,1653.48 1835.41,1652.68C1835.21,1652.36 1836.03,1651.82 1835.84,1651.16C1835.64,1650.44 1834.75,1650.95 1834.1,1650.07C1832.82,1648.35 1834.37,1644.87 1831.27,1646.37C1830.51,1645.63 1832.07,1645.3 1831.93,1644.85C1831.78,1644.41 1830.17,1644.36 1829.97,1644.19C1828.93,1643.37 1829.52,1641.6 1829.31,1640.28C1829.22,1639.7 1828.61,1639.38 1828.44,1638.75C1827.78,1636.27 1828.26,1630.95 1828.01,1628.09C1827.83,1626.1 1827.23,1624.31 1828.88,1623.08C1829.33,1622.75 1830.18,1623.13 1830.62,1622.87C1830.74,1622.79 1830.53,1622.12 1830.62,1621.99C1830.89,1621.6 1832.1,1621.62 1832.14,1621.56C1832.15,1621.55 1831.88,1620.38 1831.93,1620.25C1832.36,1618.97 1835.35,1618.56 1836.28,1617.21C1836.24,1617.26 1836.35,1616.06 1836.28,1616.12C1837.26,1615.3 1840.03,1615.32 1840.2,1613.94C1840.29,1613.14 1838.02,1612.39 1839.11,1610.68C1838.76,1611.23 1840.01,1610.1 1839.98,1610.24C1840.1,1609.79 1839.15,1609.07 1839.54,1608.5C1839.85,1608.05 1841.48,1608.35 1841.5,1607.41C1841.98,1607.7 1841.38,1610.61 1843.68,1609.15C1844.3,1608.76 1843.61,1608.49 1844.11,1607.85C1844.59,1607.23 1844.37,1608.18 1845.2,1607.63C1845.66,1607.33 1846.11,1605.96 1846.51,1605.67C1847.75,1604.77 1849.27,1604.92 1849.77,1604.15C1850.13,1603.6 1850.88,1599.97 1851.08,1600.67C1850.94,1600.16 1849.39,1600.55 1849.99,1599.79C1852.12,1599.89 1850.24,1598.59 1850.86,1597.18C1851.11,1596.63 1851.67,1596.92 1852.17,1596.53C1852.9,1595.95 1854.83,1592.96 1855.65,1592.39C1856.88,1591.54 1855.91,1592.58 1856.08,1591.31C1856.2,1590.45 1859.6,1589.83 1860.65,1589.57C1866.57,1588.07 1877.47,1588.76 1885.68,1590C1889.54,1590.58 1894.65,1591.86 1897.22,1589.78C1897.91,1590.71 1895.69,1590.33 1896.13,1591.31C1896.35,1591.79 1901.02,1589.97 1900.05,1588.48C1900.74,1589.56 1902.7,1588.23 1904.83,1587.39C1909.23,1585.65 1914.68,1583.33 1920.29,1583.47C1924,1583.56 1925.93,1583.85 1928.12,1586.52C1928.92,1586.04 1927.47,1586.03 1927.69,1585.43C1929.25,1586.52 1931.12,1586.11 1932.26,1587.39C1932.9,1587.2 1931.75,1587.06 1932.04,1586.52C1933.52,1586.95 1934.63,1588.47 1935.52,1589.78C1936.28,1590.9 1936.32,1589.87 1937.48,1590.22C1937.96,1590.36 1936.87,1590.49 1937.7,1590.44C1938.47,1590.38 1938.85,1591.77 1940.09,1592.18C1941.15,1592.53 1943.01,1591.83 1944.66,1592.18C1946.59,1592.58 1948.22,1593.9 1949.67,1594.35C1950.1,1594.49 1950.91,1594.05 1951.63,1594.35C1952.24,1594.61 1953.07,1595.46 1954.02,1595.22C1954.51,1595.11 1955.5,1593.86 1955.76,1593.92C1957,1594.21 1957.46,1599.33 1957.94,1600.01C1958.39,1600.65 1960.49,1601.61 1961.21,1601.54C1961.21,1601.54 1963.94,1600.3 1964.25,1600.01C1964.55,1599.73 1965.21,1598.37 1965.56,1596.75C1966.03,1594.6 1965.46,1595.2 1966.86,1595.01C1967.61,1594.9 1968.08,1593.94 1968.17,1593.92C1970.59,1593.3 1971.72,1594.61 1973.83,1594.57C1976.2,1594.53 1981.63,1592.96 1981.66,1592.61C1981.7,1592.19 1979.69,1591.72 1979.7,1591.74C1978.86,1589.78 1982.77,1590.4 1983.4,1590.22C1983.66,1590.14 1983.69,1589.51 1983.4,1589.57C1984,1589.45 1984.74,1589.93 1985.36,1589.78C1985.56,1589.74 1987.31,1588.13 1988.19,1587.82C1990.21,1587.12 1992.12,1586.65 1994.5,1586.52C1997.34,1586.36 1999.77,1584.14 2002.99,1584.34C2006.36,1584.55 2008.63,1584.48 2012.57,1585.21C2014.95,1585.66 2016.83,1585.84 2018.88,1586.52C2019.45,1586.71 2019.82,1587.32 2020.4,1587.61C2022.62,1588.68 2026.14,1588.92 2027.8,1590.44C2028.39,1590.97 2028.46,1592.81 2029.33,1593.27C2029.43,1593.32 2030.14,1592.61 2030.42,1592.61C2030.71,1592.62 2032.69,1594.31 2033.24,1594.57C2033.96,1594.91 2034.8,1594.61 2035.2,1595.01C2035.8,1595.61 2035.44,1596.54 2036.07,1596.97C2036.71,1597.4 2036.57,1596.48 2037.38,1596.75C2037.32,1596.73 2037.08,1597.68 2038.03,1597.62C2038.55,1597.58 2040.37,1596.15 2041.51,1595.88C2041.97,1595.77 2041.86,1596.31 2041.95,1596.31C2042.59,1596.29 2043.98,1595.31 2045.43,1595.22C2046.92,1595.14 2048.9,1594.29 2050.22,1594.14C2050.4,1594.12 2051.12,1594.56 2051.09,1594.57C2051.88,1594.28 2051.91,1593.42 2052.62,1593.27C2053.72,1593.02 2056.56,1593.79 2058.27,1592.83C2055.53,1594.78 2058.59,1594.3 2061.32,1593.92C2062.3,1593.78 2065.76,1591.04 2066.76,1592.61C2067.11,1593.16 2069,1593.1 2070.68,1592.61C2072.36,1592.13 2073.91,1590.69 2075.25,1590.22C2075.59,1590.1 2076.07,1590.58 2076.34,1590.44C2077.38,1589.86 2079.35,1588.19 2079.6,1587.39C2079.98,1586.17 2078.79,1584.37 2077.21,1585.21C2077.61,1584.74 2078.84,1583.45 2080.25,1583.04C2080.32,1583.02 2081.25,1583.31 2081.34,1583.25C2081.79,1582.99 2081.49,1582.21 2082,1581.73C2081.82,1581.9 2084.18,1581.05 2083.52,1581.08C2084.15,1581.05 2083.96,1582.06 2084.39,1581.95C2084.45,1581.93 2084.79,1581.37 2084.61,1581.29C2084.94,1581.43 2085.08,1582.39 2085.48,1582.6C2085.48,1582.6 2086.35,1581.91 2086.57,1581.95C2086.63,1581.96 2089.26,1584.81 2089.83,1582.6C2089.73,1582.97 2090.16,1581.4 2089.18,1582.17C2090.84,1580.88 2089.93,1582.21 2090.27,1583.04C2090.66,1583.99 2091.58,1583.02 2091.79,1583.47C2091.25,1582.27 2091.82,1585.45 2091.36,1585.21C2092.77,1585.95 2094.21,1581.68 2094.84,1581.51C2095.55,1581.33 2097.91,1582.45 2096.58,1583.91C2096.17,1584.36 2096.05,1583.64 2095.49,1583.91C2094.02,1584.6 2094.67,1586.61 2094.62,1586.52C2094.54,1586.38 2098.61,1588.09 2099.84,1587.39C2100.31,1587.13 2100.43,1585.69 2100.5,1585.65C2100.41,1585.7 2102.95,1586.46 2101.58,1584.34C2101.63,1584.41 2097.49,1584.4 2098.32,1584.13C2098.07,1584.21 2098.15,1585.11 2097.67,1584.78C2097.61,1584.74 2097.37,1582.69 2097.45,1582.6C2097.88,1582.12 2101.31,1582.4 2102.02,1583.47C2102.56,1584.29 2101.83,1585.64 2102.02,1585.87C2101.98,1585.82 2104.35,1586.78 2104.63,1586.3C2104.93,1585.79 2102.89,1585.71 2103.32,1584.78C2104.53,1585.26 2105.32,1585.23 2105.28,1584.13C2105.28,1583.94 2104.65,1584.04 2104.63,1584.13C2104.9,1583 2105.3,1581.06 2106.15,1580.86C2105.15,1580.53 2104.1,1578.37 2105.07,1577.59C2105.16,1577.52 2110,1577.97 2109.64,1577.81C2110.33,1578.12 2110.91,1578.72 2110.72,1579.34C2110.51,1580.05 2109.4,1579.34 2108.98,1579.99C2108.61,1580.57 2109.37,1581.15 2109.2,1581.73C2108.98,1582.5 2106.79,1583.6 2108.33,1585.21C2107.85,1585.69 2107.61,1584.83 2107.02,1584.78C2107.75,1585.52 2108.06,1587.73 2108.77,1587.82C2109.71,1587.95 2110.04,1585.47 2110.94,1585.21C2110.51,1588.41 2113.21,1586.76 2114.21,1586.08C2115.09,1587.48 2113.11,1586.76 2112.9,1587.17C2112.31,1588.38 2114.07,1589.78 2113.55,1591.31C2113.47,1590.1 2115,1590.72 2115.29,1589.78C2115.4,1589.44 2114.92,1589.01 2115.08,1588.48C2116.06,1585.12 2118.66,1581.24 2118.99,1577.81C2119.99,1577.47 2119.4,1578.72 2120.08,1578.68C2119.42,1577.46 2127.23,1577.07 2130.53,1577.81C2131.83,1578.1 2132.82,1578.67 2134.88,1578.9C2137.3,1579.18 2140,1579.36 2141.85,1579.77C2142.69,1579.96 2143.5,1580.78 2144.02,1580.86C2144.2,1580.89 2144.91,1580.03 2145.55,1580.64C2146.08,1581.15 2146.01,1583.06 2145.55,1583.47C2145.17,1583.8 2144.84,1583.22 2143.81,1583.47C2142.16,1583.87 2142.71,1584.95 2141.85,1585.21C2140.54,1585.62 2136.06,1584.68 2140.32,1585.87C2141.51,1586.2 2145.75,1588.75 2149.25,1589.13C2150.02,1589.21 2153.62,1588.49 2153.38,1590C2153.18,1591.33 2151.05,1590.07 2150.99,1591.09C2150.92,1592.15 2155.85,1591.89 2154.69,1593.05C2153.4,1594.33 2148.84,1592.21 2146.63,1592.61C2145.98,1592.73 2145.54,1593.25 2145.11,1593.27C2144.09,1593.3 2141.2,1592.1 2140.98,1593.48C2140.77,1594.77 2145.06,1593.61 2145.55,1594.57C2146.47,1596.38 2137.67,1596.43 2142.28,1597.84C2143.47,1598.2 2147.26,1598.94 2148.59,1599.36C2149.48,1599.64 2149.8,1600.04 2149.9,1600.01C2151.91,1599.56 2150.2,1596.98 2151.64,1596.09C2152.17,1595.77 2152.35,1596.64 2153.17,1596.75C2154.33,1596.91 2157.72,1595.67 2157.3,1593.92C2157.72,1594.31 2158.62,1595.25 2157.73,1595.66C2159.21,1594.72 2161.47,1595.5 2163.18,1594.35C2163.81,1593.93 2163.77,1592.67 2164.26,1592.39C2165.35,1591.78 2167.17,1592.78 2167.75,1592.18C2169.59,1590.24 2167.22,1584.49 2170.14,1583.47C2170.76,1583.26 2172.65,1583.99 2174.06,1583.47C2175.54,1582.93 2174.54,1582.68 2176.23,1583.25C2178.29,1583.96 2181.95,1582.76 2184.07,1583.04C2184.96,1583.15 2185.64,1583.79 2186.46,1583.91C2189.65,1584.37 2193.37,1583.47 2196.47,1584.13C2198.02,1584.45 2199.66,1585.45 2201.48,1585.65C2205.16,1586.04 2208.85,1584.7 2210.84,1587.39C2208.69,1586.56 2209.94,1588.35 2211.28,1588.48C2211.97,1588.54 2212.7,1587.69 2213.89,1587.61C2215.6,1587.49 2217.56,1589.25 2218.46,1589.35C2219.19,1589.42 2218.96,1588.52 2219.54,1588.91C2220.32,1589.43 2220.55,1590.52 2220.63,1591.09C2219.89,1590.16 2217.76,1590.07 2217.15,1590C2214.62,1589.71 2221.01,1591.97 2220.85,1591.74C2222.31,1593.77 2219.79,1595.11 2222.16,1596.09Z" style="fill:white;"/>
            </g>
        </g>
    </g>
</svg>
