<?xml version="1.0" encoding="UTF-8" standalone="no"?>
<!DOCTYPE svg PUBLIC "-//W3C//DTD SVG 1.1//EN" "http://www.w3.org/Graphics/SVG/1.1/DTD/svg11.dtd">
<svg width="100%" height="100%" viewBox="0 0 2481 3508" version="1.1" xmlns="http://www.w3.org/2000/svg" xmlns:xlink="http://www.w3.org/1999/xlink" xml:space="preserve" style="fill-rule:evenodd;clip-rule:evenodd;stroke-linejoin:round;stroke-miterlimit:1.41421;">
    <g transform="matrix(8.74721,-6.00121,6.00121,8.74721,-11595.8,-7629.77)">
        <path d="M439.142,1426.62L429.583,1426.28L422.909,1426.56L422.626,1423.74L427.095,1422.83C427.434,1420.61 427.604,1419.17 427.604,1418.53L427.604,1394.15C427.604,1393.48 427.434,1392.04 427.095,1389.86L422.739,1389.18L423.022,1386.12C425.435,1386.24 427.283,1386.33 428.565,1386.4C429.546,1386.37 431.205,1386.26 433.543,1386.09C435.88,1385.92 437.747,1385.84 439.142,1385.84C445.364,1385.84 450.172,1387.67 453.565,1391.33C456.959,1394.98 458.656,1399.93 458.656,1406.17C458.656,1412.41 456.912,1417.38 453.424,1421.08C449.936,1424.77 445.175,1426.62 439.142,1426.62ZM439.199,1389.23C436.748,1389.23 434.73,1389.33 433.147,1389.52C432.883,1392.01 432.751,1394.12 432.751,1395.85L432.751,1416.84C432.751,1419.93 432.883,1422 433.147,1423.06C435.107,1423.21 437.125,1423.28 439.199,1423.28C443.724,1423.28 447.164,1421.7 449.521,1418.53C451.878,1415.37 453.056,1411.29 453.056,1406.32C453.056,1401.34 451.878,1397.25 449.521,1394.04C447.164,1390.84 443.724,1389.23 439.199,1389.23Z" style="fill-opacity:0.25;fill-rule:nonzero;"/>
        <path d="M468.158,1396.36L476.586,1395.96C479.678,1395.96 482.11,1396.73 483.882,1398.26C485.655,1399.78 486.541,1401.96 486.541,1404.79C486.541,1406.71 485.994,1408.37 484.9,1409.77C483.807,1411.16 482.336,1412.24 480.489,1412.99C482.487,1416.8 484.693,1420.29 487.106,1423.45L489.934,1423.74L489.652,1426.51C487.351,1426.36 484.863,1426.28 482.185,1426.28C481.017,1423.68 480.244,1422.04 479.866,1421.36L475.794,1413.89L475.342,1413.89C474.663,1413.89 473.569,1413.86 472.061,1413.78L472.061,1418.76C472.061,1419.4 472.174,1420.96 472.4,1423.45L476.02,1423.74L475.737,1426.51C473.664,1426.36 471.288,1426.28 468.611,1426.28L463.633,1426.51L463.464,1424.02L466.744,1423.45L467.14,1420.06L467.14,1403.09L466.744,1399.3L463.52,1398.79L463.746,1396.13C465.556,1396.25 467.027,1396.32 468.158,1396.36ZM474.493,1398.57C474.003,1398.57 473.305,1398.62 472.4,1398.74C472.174,1400.32 472.061,1401.87 472.061,1403.37L472.061,1411.18C472.664,1411.22 473.456,1411.24 474.437,1411.24C476.661,1411.24 478.377,1410.7 479.584,1409.62C480.79,1408.55 481.394,1406.96 481.394,1404.87C481.394,1402.78 480.8,1401.2 479.612,1400.15C478.424,1399.09 476.718,1398.57 474.493,1398.57Z" style="fill-opacity:0.25;fill-rule:nonzero;"/>
        <path d="M520.478,1423.79L520.251,1426.34C518.404,1426.3 516.99,1426.28 516.009,1426.28L508.826,1426.51L508.656,1424.02L511.654,1423.34L510.806,1419.66L509.957,1417.29L500.738,1417.29L499.55,1421.08L499.154,1423.34L502.039,1423.79L501.812,1426.34C500.153,1426.3 498.796,1426.28 497.74,1426.28L491.744,1426.51L491.575,1424.02L494.063,1423.45L495.93,1419.49L504.018,1396.36L507.355,1395.91L516.349,1420.29L517.819,1423.4L520.478,1423.79ZM505.319,1403.6L501.643,1414.69L508.996,1414.52L505.319,1403.6Z" style="fill-opacity:0.25;fill-rule:nonzero;"/>
        <path d="M532.412,1399.19L532.129,1403.37L532.129,1409.82C532.582,1409.86 533.128,1409.88 533.769,1409.88L536.767,1409.88L539.199,1409.48L539.595,1406.77L541.858,1406.94C541.82,1408.75 541.801,1409.93 541.801,1410.5L541.914,1415.42L539.595,1415.65L539.199,1412.93C537.578,1412.78 536.466,1412.71 535.862,1412.71L533.769,1412.71C533.091,1412.71 532.544,1412.73 532.129,1412.76L532.129,1418.82C532.129,1420.55 532.242,1422.1 532.469,1423.45L536.824,1423.74L536.541,1426.51C533.977,1426.36 531.356,1426.28 528.679,1426.28L523.702,1426.51L523.532,1424.02L526.812,1423.45C527.076,1422.25 527.208,1421.12 527.208,1420.06L527.208,1403.09C527.208,1401.88 527.076,1400.62 526.812,1399.3L523.588,1398.79L523.815,1396.13C526.228,1396.29 527.849,1396.36 528.679,1396.36L539.199,1396.36L544.233,1395.96L545.082,1396.7L545.365,1402.81L542.593,1403.03C542.518,1402.05 542.367,1401.26 542.141,1400.66C542.141,1400.43 541.914,1400.02 541.462,1399.41C540.18,1399.26 538.992,1399.19 537.898,1399.19L532.412,1399.19Z" style="fill-opacity:0.25;fill-rule:nonzero;"/>
        <path d="M566.066,1399.19L563.408,1399.19C563.181,1400.77 563.068,1402.17 563.068,1403.37L563.068,1418.76C563.068,1420.64 563.181,1422.21 563.408,1423.45L567.028,1423.74L566.745,1426.51C564.633,1426.36 562.258,1426.28 559.618,1426.28L554.641,1426.51L554.414,1424.02L557.695,1423.45C557.959,1422.25 558.091,1421.12 558.091,1420.06L558.091,1403.09C558.091,1402.19 557.959,1400.88 557.695,1399.19L555.15,1399.19C554.056,1399.19 552.868,1399.26 551.586,1399.41C551.134,1400.02 550.86,1400.56 550.766,1401.06C550.672,1401.55 550.568,1402.32 550.455,1403.37L547.684,1403.2L547.966,1396.7L548.815,1395.96C551.567,1396.23 553.245,1396.36 553.849,1396.36L567.31,1396.36L572.344,1395.96L573.193,1396.7L573.476,1403.2L570.761,1403.37C570.761,1403.3 570.704,1402.89 570.591,1402.16C570.478,1401.42 570.393,1400.93 570.336,1400.69C570.28,1400.44 570.025,1400.02 569.573,1399.41C568.366,1399.26 567.197,1399.19 566.066,1399.19Z" style="fill-opacity:0.25;fill-rule:nonzero;"/>
    </g>
</svg>
